<?xml version="1.0" encoding="UTF-8" standalone="no"?>
<!-- Created with Inkscape (http://www.inkscape.org/) -->

<svg
   xmlns:dc="http://purl.org/dc/elements/1.1/"
   xmlns:cc="http://creativecommons.org/ns#"
   xmlns:rdf="http://www.w3.org/1999/02/22-rdf-syntax-ns#"
   xmlns:svg="http://www.w3.org/2000/svg"
   xmlns="http://www.w3.org/2000/svg"
   xmlns:xlink="http://www.w3.org/1999/xlink"
   xmlns:sodipodi="http://sodipodi.sourceforge.net/DTD/sodipodi-0.dtd"
   xmlns:inkscape="http://www.inkscape.org/namespaces/inkscape"
   sodipodi:docname="logo.svg"
   inkscape:version="0.48.3.1 r9886"
   version="1.1"
   id="svg2"
   height="250"
   width="1050"
   inkscape:export-filename="/home/ederohanian/Desktop/logoDonL.png"
   inkscape:export-xdpi="90"
   inkscape:export-ydpi="90">
  <sodipodi:namedview
     id="base"
     pagecolor="#ffffff"
     bordercolor="#666666"
     borderopacity="1.0"
     inkscape:pageopacity="0.0"
     inkscape:pageshadow="2"
     inkscape:zoom="0.94857143"
     inkscape:cx="271.98795"
     inkscape:cy="125"
     inkscape:document-units="px"
     inkscape:current-layer="layer1"
     showgrid="false"
     inkscape:window-width="1440"
     inkscape:window-height="841"
     inkscape:window-x="0"
     inkscape:window-y="35"
     inkscape:window-maximized="1"
     showguides="true"
     inkscape:guide-bbox="true"
     inkscape:snap-global="false">
    <inkscape:grid
       type="xygrid"
       id="grid3010"
       empspacing="5"
       visible="true"
       enabled="true"
       snapvisiblegridlinesonly="true" />
  </sodipodi:namedview>
  <defs
     id="defs4">
    <linearGradient
       y2="21.289431"
       x2="291.4877"
       y1="39.627937"
       x1="291.4877"
       id="linearGradient2930"
       xlink:href="#linearGradient9251"
       gradientTransform="scale(0.26082033,3.8340569)"
       gradientUnits="userSpaceOnUse" />
    <linearGradient
       y2="23.646412"
       x2="332.19244"
       y1="42.122169"
       x1="332.19244"
       id="linearGradient2926"
       xlink:href="#linearGradient8354"
       gradientTransform="scale(0.25808947,3.8746253)"
       gradientUnits="userSpaceOnUse" />
    <linearGradient
       id="linearGradient8354">
      <stop
         stop-color="black"
         id="stop8356"
         offset="0" />
      <stop
         stop-color="black"
         stop-opacity="0"
         id="stop8358"
         offset="1" />
    </linearGradient>
    <linearGradient
       id="linearGradient9251">
      <stop
         stop-color="black"
         id="stop9253"
         offset="0" />
      <stop
         stop-color="black"
         stop-opacity="0"
         id="stop9255"
         offset="1" />
    </linearGradient>
    <linearGradient
       inkscape:collect="always"
       xlink:href="#linearGradient9251"
       id="linearGradient5736"
       gradientUnits="userSpaceOnUse"
       gradientTransform="matrix(0.26082033,0,0,3.8340569,379.17283,-1464.9932)"
       x1="291.4877"
       y1="39.627937"
       x2="291.4877"
       y2="21.289431" />
    <linearGradient
       inkscape:collect="always"
       xlink:href="#linearGradient8354"
       id="linearGradient5739"
       gradientUnits="userSpaceOnUse"
       gradientTransform="matrix(0.25808947,0,0,3.8746253,379.17283,-1464.9932)"
       x1="332.19244"
       y1="42.122169"
       x2="332.19244"
       y2="23.646412" />
    <filter
       id="filter5899"
       y="-0.15"
       height="1.3"
       x="-0.15"
       width="1.3"
       inkscape:menu-tooltip="Aquarelle paper effect which can be used for pictures as for objects"
       inkscape:menu="Textures"
       inkscape:label="Rough paper"
       color-interpolation-filters="sRGB">
      <feTurbulence
         id="feTurbulence5901"
         type="fractalNoise"
         baseFrequency="0.04"
         numOctaves="5"
         seed="0"
         result="result4" />
      <feDisplacementMap
         in2="result4"
         id="feDisplacementMap5903"
         in="SourceGraphic"
         yChannelSelector="G"
         xChannelSelector="R"
         scale="10"
         result="result3" />
      <feDiffuseLighting
         id="feDiffuseLighting5905"
         lighting-color="rgb(233,230,215)"
         diffuseConstant="1"
         surfaceScale="2"
         result="result1"
         in="result4">
        <feDistantLight
           id="feDistantLight5907"
           azimuth="235"
           elevation="40" />
      </feDiffuseLighting>
      <feComposite
         in2="result1"
         id="feComposite5909"
         operator="in"
         in="result3"
         result="result2" />
      <feComposite
         in2="result1"
         id="feComposite5911"
         result="result5"
         operator="arithmetic"
         k1="1.7" />
      <feBlend
         in2="result3"
         id="feBlend5913"
         in="result5"
         mode="normal" />
    </filter>
    <filter
       id="filter5995"
       inkscape:label="Noise transparency"
       inkscape:menu="ABCs"
       inkscape:menu-tooltip="Basic noise transparency texture"
       color-interpolation-filters="sRGB">
      <feTurbulence
         id="feTurbulence5997"
         type="fractalNoise"
         numOctaves="5"
         baseFrequency="0.02"
         result="result1" />
      <feComposite
         id="feComposite5999"
         in2="result1"
         operator="in"
         result="result2"
         in="SourceGraphic" />
      <feColorMatrix
         id="feColorMatrix6001"
         result="result3"
         values="1 0 0 0 0 0 1 0 0 0 0 0 1 0 0 0 0 0 3 -1 "
         in="result2" />
    </filter>
  </defs>
  <metadata
     id="metadata7">
    <rdf:RDF>
      <cc:Work
         rdf:about="">
        <dc:format>image/svg+xml</dc:format>
        <dc:type
           rdf:resource="http://purl.org/dc/dcmitype/StillImage" />
        <dc:title></dc:title>
      </cc:Work>
    </rdf:RDF>
  </metadata>
  <g
     transform="translate(0,-802.36329)"
     id="layer1"
     inkscape:groupmode="layer"
     inkscape:label="Layer 1">
    <rect
       style="fill:#333333;fill-opacity:1;fill-rule:nonzero;stroke:none"
       id="rect3353"
       width="1017.2986"
       height="214.69038"
       x="18.052097"
       y="821.76941" />
    <flowRoot
       style="font-size:16px;font-style:normal;font-variant:normal;font-weight:normal;font-stretch:normal;text-indent:0;text-align:start;text-decoration:none;line-height:125%;letter-spacing:0px;word-spacing:0px;text-transform:none;direction:ltr;block-progression:tb;writing-mode:lr-tb;text-anchor:start;baseline-shift:baseline;color:#000000;fill:#333333;fill-opacity:1;fill-rule:nonzero;stroke:none;stroke-width:1px;marker:none;visibility:visible;display:inline;overflow:visible;enable-background:accumulate;font-family:Open Sans;-inkscape-font-specification:Open Sans"
       id="flowRoot3010"
       xml:space="preserve"><flowRegion
         id="flowRegion3012"><rect
           y="432.23135"
           x="119.27397"
           height="73.315193"
           width="47.053032"
           id="rect3014" /></flowRegion><flowPara
         id="flowPara3016" /></flowRoot>    <flowRoot
       style="font-size:16px;font-style:normal;font-variant:normal;font-weight:normal;font-stretch:normal;text-indent:0;text-align:start;text-decoration:none;line-height:125%;letter-spacing:0px;word-spacing:0px;text-transform:none;direction:ltr;block-progression:tb;writing-mode:lr-tb;text-anchor:start;baseline-shift:baseline;color:#000000;fill:#333333;fill-opacity:1;fill-rule:nonzero;stroke:none;stroke-width:1px;marker:none;visibility:visible;display:inline;overflow:visible;enable-background:accumulate;font-family:Open Sans;-inkscape-font-specification:Open Sans"
       id="flowRoot3018"
       xml:space="preserve"><flowRegion
         id="flowRegion3020"><rect
           y="506.64081"
           x="167.42126"
           height="108.33141"
           width="155.38443"
           id="rect3022" /></flowRegion><flowPara
         id="flowPara3024" /></flowRoot>    <text
       xml:space="preserve"
       style="font-size:16px;font-style:normal;font-variant:normal;font-weight:normal;font-stretch:normal;text-indent:0;text-align:start;text-decoration:none;line-height:125%;letter-spacing:0px;word-spacing:0px;text-transform:none;direction:ltr;block-progression:tb;writing-mode:lr-tb;text-anchor:start;baseline-shift:baseline;color:#000000;fill:#333333;fill-opacity:1;fill-rule:nonzero;stroke:none;stroke-width:1px;marker:none;visibility:visible;display:inline;overflow:visible;enable-background:accumulate;font-family:Open Sans;-inkscape-font-specification:Open Sans"
       x="449.13235"
       y="550.02496"
       id="text2997"
       sodipodi:linespacing="125%"
       transform="translate(0,308.2677)"><tspan
         sodipodi:role="line"
         id="tspan2999"
         x="449.13235"
         y="550.02496" /></text>
    <g
       id="g5831">
      <text
         xml:space="preserve"
         style="font-size:200px;font-style:normal;font-variant:normal;font-weight:bold;font-stretch:normal;text-indent:0;text-align:start;text-decoration:none;line-height:125%;letter-spacing:0px;word-spacing:0px;text-transform:none;direction:ltr;block-progression:tb;writing-mode:lr-tb;text-anchor:start;baseline-shift:baseline;color:#000000;fill:#ffffff;fill-opacity:1;fill-rule:nonzero;stroke:none;stroke-width:1px;marker:none;visibility:visible;display:inline;overflow:visible;enable-background:accumulate;font-family:PT Sans;-inkscape-font-specification:Open Sans Bold"
         x="266.56619"
         y="997.64935"
         id="text3006"
         sodipodi:linespacing="125%"><tspan
           sodipodi:role="line"
           id="tspan3008"
           x="266.56619"
           y="997.64935"
           style="font-size:200px;font-style:normal;font-variant:normal;font-weight:bold;font-stretch:normal;text-align:start;line-height:125%;writing-mode:lr-tb;text-anchor:start;fill:#ffffff;fill-opacity:1;font-family:Open Sans;-inkscape-font-specification:Open Sans Bold">Browse</tspan></text>
      <g
         transform="translate(21.333426,183.83511)"
         id="text3012"
         style="font-size:200px;font-style:normal;font-variant:normal;font-weight:bold;font-stretch:normal;text-indent:0;text-align:start;text-decoration:none;line-height:125%;letter-spacing:0px;word-spacing:0px;text-transform:none;direction:ltr;block-progression:tb;writing-mode:lr-tb;text-anchor:start;baseline-shift:baseline;color:#000000;fill:#ffffff;fill-opacity:1;fill-rule:nonzero;stroke:none;stroke-width:1px;marker:none;visibility:visible;display:inline;overflow:visible;enable-background:accumulate;font-family:PT Sans;-inkscape-font-specification:Open Sans Bold">
        <path
           sodipodi:nodetypes="cccscsccssc"
           inkscape:connector-curvature="0"
           id="path3017"
           style="line-height:125%;fill:#ffffff;marker:none;font-family:Open Sans;-inkscape-font-specification:Open Sans Bold"
           d="m 192.26007,813.80646 c -6.83593,-4e-5 -12.79296,-0.71619 -17.87109,-2.14844 l 0,-25.19531 c 5.20834,1.30206 9.96094,1.95311 14.25781,1.95312 6.64062,-10e-6 11.39322,-2.08335 14.25781,-6.25 2.86457,-4.10157 4.29688,-10.54687 4.29688,-19.33593 l 0,-91.78907 30.27343,0 0,91.59375 c 0,16.66666 -3.80863,29.36196 -11.42578,38.08594 -7.61721,8.72392 -18.88022,13.0859 -33.78906,13.08594" />
      </g>
    </g>
    <path
       inkscape:connector-curvature="0"
       style="fill:#0e53a7;fill-rule:nonzero;stroke:#000000;stroke-width:0;stroke-linejoin:round;stroke-miterlimit:4;stroke-dashoffset:0;marker-start:none;marker-mid:none;marker-end:none"
       d="m 168.05558,854.9411 c -1.54052,1.01512 -3.10543,2.01831 -4.86002,3.04721 -4.78754,2.80767 -6.99287,3.52468 -12.96006,6.32886 5.96527,2.79544 11.48011,5.59615 16.26007,8.39941 2.92081,1.7128 5.60513,3.48516 7.95004,5.31311 7.97072,-5.82735 9.21618,-9.44198 9.21003,-15.2752 -4.8e-4,-0.66965 -9.5e-4,-5.1884 0,-7.81339 l -15.60006,0 z m -56.10025,27.30782 c -0.44765,0.18558 -0.90197,0.40038 -1.35,0.586 -18.25803,7.56862 -33.104979,13.0197 -46.020204,20.58831 -0.03298,0.0194 -0.05708,0.0588 -0.09,0.0781 -0.772559,0.45371 -1.546871,0.91379 -2.28001,1.36734 -0.02761,0.0171 -0.06245,0.022 -0.09,0.0391 -0.733667,0.45486 -1.436926,0.91262 -2.13001,1.36734 -0.286006,0.18762 -0.561008,0.35935 -0.840003,0.54695 -1.050383,0.70646 -2.051274,1.44246 -3.000013,2.14868 -0.06843,0.051 -0.14211,0.1054 -0.210001,0.15627 -0.208252,0.15622 -0.396835,0.3126 -0.600003,0.4688 -0.41215,0.31693 -0.839017,0.62073 -1.230004,0.93761 -0.01139,0.009 -0.01862,0.0299 -0.03,0.0391 -0.569874,0.46266 -1.126065,0.90475 -1.650008,1.36736 -0.01108,0.01 -0.01895,0.0293 -0.03,0.0391 -0.522048,0.46186 -1.024711,0.90552 -1.500007,1.36734 -0.01083,0.01 -0.0192,0.0285 -0.03,0.0392 -0.473421,0.46113 -0.924159,0.9453 -1.350006,1.40641 -0.01037,0.0112 -0.01966,0.0278 -0.03,0.0392 -0.423684,0.46016 -0.82466,0.9072 -1.200006,1.36735 -0.01,0.0125 -0.02008,0.0269 -0.03,0.0391 -0.37322,0.45925 -0.725888,0.90805 -1.050005,1.36734 -0.0047,0.007 0.0047,0.0323 0,0.0392 -1.324898,1.88213 -2.239765,3.74218 -2.700011,5.62565 -0.0028,0.0113 0.0027,0.0278 0,0.0392 -0.225246,0.93343 -0.358971,1.87883 -0.360001,2.81282 0,2.23628 0.05808,21.69843 0.06,26.83902 -0.01536,0.28345 -0.06,0.57441 -0.06,0.85948 -0.0011,0.4171 0.04566,0.82461 0.09,1.25014 0.01357,0.12824 0.01235,0.26173 0.03,0.39067 0.05621,0.41617 0.14168,0.8272 0.240001,1.25015 0.113931,0.4901 0.250477,0.98665 0.420001,1.48454 0.148652,0.43659 0.319346,0.88673 0.510003,1.32828 0.02909,0.0673 0.05995,0.12803 0.09,0.19533 0.209481,0.47068 0.433864,0.93141 0.690003,1.40642 0.04924,0.0911 0.09906,0.18218 0.15,0.27347 0.08912,0.15996 0.175679,0.30844 0.270002,0.46879 0.180815,0.30753 0.37022,0.58986 0.570002,0.89855 0.335081,0.51909 0.692195,1.04143 1.080005,1.56267 0.351288,0.47217 0.716284,0.93364 1.110005,1.40642 0.04264,0.0513 0.07687,0.10502 0.12,0.15627 0.220273,0.26164 0.456949,0.51979 0.690004,0.78133 0.323031,0.36248 0.642721,0.732 0.990003,1.09388 0.03974,0.0413 0.07995,0.0757 0.120001,0.11714 0.361614,0.37383 0.722936,0.72126 1.110005,1.09388 0.481507,0.4642 0.97966,0.90601 1.500006,1.36734 0.140737,0.12476 0.276463,0.26615 0.420003,0.39067 0.50973,0.4423 1.045304,0.88984 1.590006,1.32828 0.242373,0.19503 0.500822,0.39185 0.750003,0.58601 2.342304,1.825 4.973794,3.60292 7.890034,5.31311 4.783286,2.80509 10.320308,5.60212 16.290071,8.3994 0.36973,0.17328 0.76695,0.33461 1.140005,0.50787 1.54731,0.71816 3.108832,1.46964 4.710021,2.18775 0.240034,0.10789 0.478898,0.20469 0.720003,0.31254 6.358394,2.83879 13.060505,5.67128 19.890075,8.51661 l 59.10026,0 c -1.05859,-0.67113 -2.09569,-1.32192 -3.24001,-1.99242 -12.9159,-7.56849 -31.06131,-15.09041 -49.32022,-22.65886 -0.42815,-0.17738 -0.83204,-0.36947 -1.26,-0.54695 -0.01,0.004 -0.0208,-0.004 -0.0301,0 -11.05242,-4.58289 -22.029654,-9.13499 -31.770132,-13.7125 -1.940419,-0.9119 -3.805778,-1.86163 -5.640024,-2.77376 -1.559282,-0.77586 -3.059395,-1.5297 -4.529972,-2.30539 -0.596584,-0.31468 -1.189308,-0.62287 -1.770007,-0.93761 -1.478905,-0.80788 -2.920132,-1.61879 -4.290019,-2.42214 -4.967541,-2.91322 -10.072652,-6.94632 -13.380058,-9.92302 0.254017,-0.27239 0.495843,-0.56205 0.720004,-0.78135 2.607082,-2.55295 7.548704,-5.98957 12.660054,-8.9854 12.915224,-7.56863 31.032097,-15.1684 49.290204,-22.737 11.50912,-4.76922 19.71652,-7.38522 29.85013,-12.14983 -9.74155,-4.57739 -20.71779,-9.1297 -31.77014,-13.71252 z"
       id="use2776" />
    <path
       id="path5829"
       d="m 59.75511,997.88797 c 1.540519,-1.01513 3.105422,-2.01831 4.860021,-3.04721 4.787541,-2.80767 6.992863,-3.52469 12.960056,-6.32886 -5.965274,-2.79544 -11.480113,-5.59614 -16.26007,-8.3994 -2.920813,-1.71282 -5.605129,-3.48516 -7.950034,-5.31312 -7.970723,5.82736 -9.216184,9.44198 -9.210041,15.2752 4.81e-4,0.66965 9.61e-4,5.18841 0,7.81339 l 15.600068,0 z m 56.10025,-27.30781 c 0.44766,-0.1856 0.90198,-0.40038 1.35,-0.58601 18.25803,-7.56862 33.10498,-13.0197 46.0202,-20.58831 0.0331,-0.0194 0.0571,-0.0588 0.09,-0.0781 0.77256,-0.45371 1.54686,-0.91379 2.28001,-1.36734 0.0276,-0.0171 0.0624,-0.022 0.09,-0.0392 0.73366,-0.45485 1.43693,-0.91263 2.13001,-1.36735 0.286,-0.18761 0.56101,-0.35935 0.84001,-0.54694 1.05037,-0.70645 2.05126,-1.44245 3.00001,-2.14869 0.0684,-0.051 0.14211,-0.10538 0.21,-0.15627 0.20825,-0.15622 0.39683,-0.31258 0.6,-0.46879 0.41215,-0.31692 0.83901,-0.62072 1.23,-0.9376 0.0114,-0.009 0.0186,-0.0299 0.0301,-0.0392 0.56986,-0.46266 1.12605,-0.90476 1.65,-1.36736 0.0111,-0.01 0.0189,-0.0293 0.0301,-0.0392 0.52205,-0.46185 1.02471,-0.90551 1.50001,-1.36734 0.0109,-0.01 0.0192,-0.0285 0.0301,-0.0392 0.47341,-0.46114 0.92415,-0.94531 1.35,-1.40641 0.0104,-0.0113 0.0197,-0.0278 0.0301,-0.0392 0.42368,-0.46016 0.82465,-0.9072 1.20001,-1.36735 0.01,-0.0125 0.02,-0.0268 0.0301,-0.0392 0.37321,-0.45925 0.72589,-0.90806 1.05001,-1.36734 0.005,-0.007 -0.005,-0.0324 0,-0.0392 1.32489,-1.88215 2.23975,-3.74219 2.70001,-5.62566 0.003,-0.0112 -0.003,-0.0278 0,-0.0392 0.22524,-0.93343 0.35896,-1.87882 0.36,-2.81282 0,-2.23628 -0.0581,-21.69843 -0.06,-26.83902 0.0154,-0.28345 0.06,-0.57441 0.06,-0.85947 9.6e-4,-0.41711 -0.0457,-0.82461 -0.0899,-1.25015 -0.0135,-0.12823 -0.0124,-0.26174 -0.0301,-0.39067 -0.0561,-0.41618 -0.14169,-0.8272 -0.24,-1.25015 -0.11394,-0.4901 -0.25049,-0.98664 -0.42001,-1.48454 -0.14865,-0.43659 -0.31935,-0.88672 -0.50999,-1.32828 -0.0291,-0.0673 -0.06,-0.12802 -0.09,-0.19533 -0.20948,-0.47067 -0.43385,-0.93141 -0.68999,-1.40642 -0.0492,-0.0911 -0.0991,-0.18218 -0.15,-0.27346 -0.0891,-0.15997 -0.17568,-0.30846 -0.27001,-0.4688 -0.18081,-0.30753 -0.37022,-0.58986 -0.56999,-0.89854 -0.33509,-0.5191 -0.69221,-1.04144 -1.08002,-1.56268 -0.35129,-0.47216 -0.71628,-0.93363 -1.11,-1.40642 -0.0426,-0.0513 -0.0769,-0.10501 -0.11999,-0.15627 -0.22029,-0.26164 -0.45696,-0.51979 -0.69001,-0.78134 -0.32304,-0.36246 -0.64273,-0.73199 -0.99,-1.09387 -0.0398,-0.0414 -0.08,-0.0757 -0.12001,-0.11714 -0.36161,-0.37383 -0.72294,-0.72125 -1.11,-1.09388 -0.48151,-0.4642 -0.97967,-0.90601 -1.50001,-1.36734 -0.14074,-0.12477 -0.27647,-0.26614 -0.42,-0.39067 -0.50973,-0.4423 -1.04531,-0.88985 -1.59001,-1.32828 -0.24237,-0.19503 -0.50082,-0.39185 -0.75,-0.586 -2.3423,-1.82501 -4.9738,-3.60293 -7.89003,-5.31312 -4.78329,-2.80509 -10.32032,-5.60212 -16.29007,-8.3994 -0.36974,-0.17327 -0.76696,-0.33461 -1.14001,-0.50787 -1.54731,-0.71815 -3.10884,-1.46964 -4.71002,-2.18775 -0.24004,-0.10789 -0.4789,-0.20468 -0.72,-0.31253 -6.3584,-2.83879 -13.06051,-5.67129 -19.89009,-8.51661 l -59.100263,0 c 1.058597,0.67113 2.095689,1.32191 3.240015,1.99242 12.915895,7.56848 31.061309,15.0904 49.320218,22.65885 0.42817,0.17738 0.83204,0.36948 1.26001,0.54694 0.01,-0.004 0.0208,0.004 0.0301,0 11.05241,4.5829 22.02965,9.135 31.77013,13.71251 1.94042,0.9119 3.80578,1.86163 5.64003,2.77376 1.55927,0.77587 3.05939,1.5297 4.52997,2.30539 0.59657,0.31468 1.1893,0.62287 1.77001,0.93761 1.47889,0.80788 2.92012,1.61879 4.29002,2.42215 4.96753,2.91321 10.07265,6.94631 13.38006,9.92301 -0.25403,0.27239 -0.49585,0.56206 -0.72001,0.78135 -2.60708,2.55295 -7.5487,5.98957 -12.66005,8.9854 -12.91523,7.56863 -31.0321,15.1684 -49.29022,22.737 -11.50912,4.76922 -19.716522,7.38522 -29.850135,12.14983 9.741546,4.57738 20.717805,9.12969 31.770145,13.71252 z"
       style="fill:#6899d3;fill-rule:nonzero;stroke:#000000;stroke-width:0;stroke-linejoin:round;stroke-miterlimit:4;stroke-dashoffset:0;marker-start:none;marker-mid:none;marker-end:none"
       inkscape:connector-curvature="0" />
  </g>
  <g
     id="g3285"
     inkscape:groupmode="layer"
     inkscape:label="lorem ipsum"
     transform="translate(0,-494.09548)" />
</svg>
