<?xml version="1.0" encoding="UTF-8" standalone="no"?>
<!-- Created with Inkscape (http://www.inkscape.org/) -->

<svg
   xmlns:dc="http://purl.org/dc/elements/1.1/"
   xmlns:cc="http://creativecommons.org/ns#"
   xmlns:rdf="http://www.w3.org/1999/02/22-rdf-syntax-ns#"
   xmlns:svg="http://www.w3.org/2000/svg"
   xmlns="http://www.w3.org/2000/svg"
   xmlns:xlink="http://www.w3.org/1999/xlink"
   xmlns:sodipodi="http://sodipodi.sourceforge.net/DTD/sodipodi-0.dtd"
   xmlns:inkscape="http://www.inkscape.org/namespaces/inkscape"
   sodipodi:docname="logo.svg"
   inkscape:version="0.48.3.1 r9886"
   version="1.1"
   id="svg2"
   height="250"
   width="1050"
   inkscape:export-filename="/home/ederohanian/Desktop/logo.png"
   inkscape:export-xdpi="90"
   inkscape:export-ydpi="90">
  <sodipodi:namedview
     id="base"
     pagecolor="#ffffff"
     bordercolor="#666666"
     borderopacity="1.0"
     inkscape:pageopacity="0.0"
     inkscape:pageshadow="2"
     inkscape:zoom="0.91386244"
     inkscape:cx="611.86562"
     inkscape:cy="21.885132"
     inkscape:document-units="px"
     inkscape:current-layer="layer1"
     showgrid="false"
     inkscape:window-width="1440"
     inkscape:window-height="841"
     inkscape:window-x="0"
     inkscape:window-y="35"
     inkscape:window-maximized="1"
     showguides="true"
     inkscape:guide-bbox="true">
    <inkscape:grid
       type="xygrid"
       id="grid3010"
       empspacing="5"
       visible="true"
       enabled="true"
       snapvisiblegridlinesonly="true" />
  </sodipodi:namedview>
  <defs
     id="defs4">
    <linearGradient
       y2="21.289431"
       x2="291.4877"
       y1="39.627937"
       x1="291.4877"
       id="linearGradient2930"
       xlink:href="#linearGradient9251"
       gradientTransform="scale(0.26082033,3.8340569)"
       gradientUnits="userSpaceOnUse" />
    <linearGradient
       y2="23.646412"
       x2="332.19244"
       y1="42.122169"
       x1="332.19244"
       id="linearGradient2926"
       xlink:href="#linearGradient8354"
       gradientTransform="scale(0.25808947,3.8746253)"
       gradientUnits="userSpaceOnUse" />
    <linearGradient
       id="linearGradient8354">
      <stop
         stop-color="black"
         id="stop8356"
         offset="0" />
      <stop
         stop-color="black"
         stop-opacity="0"
         id="stop8358"
         offset="1" />
    </linearGradient>
    <linearGradient
       id="linearGradient9251">
      <stop
         stop-color="black"
         id="stop9253"
         offset="0" />
      <stop
         stop-color="black"
         stop-opacity="0"
         id="stop9255"
         offset="1" />
    </linearGradient>
    <linearGradient
       inkscape:collect="always"
       xlink:href="#linearGradient9251"
       id="linearGradient5736"
       gradientUnits="userSpaceOnUse"
       gradientTransform="matrix(0.26082033,0,0,3.8340569,379.17283,-1464.9932)"
       x1="291.4877"
       y1="39.627937"
       x2="291.4877"
       y2="21.289431" />
    <linearGradient
       inkscape:collect="always"
       xlink:href="#linearGradient8354"
       id="linearGradient5739"
       gradientUnits="userSpaceOnUse"
       gradientTransform="matrix(0.25808947,0,0,3.8746253,379.17283,-1464.9932)"
       x1="332.19244"
       y1="42.122169"
       x2="332.19244"
       y2="23.646412" />
  </defs>
  <metadata
     id="metadata7">
    <rdf:RDF>
      <cc:Work
         rdf:about="">
        <dc:format>image/svg+xml</dc:format>
        <dc:type
           rdf:resource="http://purl.org/dc/dcmitype/StillImage" />
        <dc:title />
      </cc:Work>
    </rdf:RDF>
  </metadata>
  <g
     transform="translate(0,-802.36329)"
     id="layer1"
     inkscape:groupmode="layer"
     inkscape:label="Layer 1">
    <rect
       style="fill:#333333;fill-opacity:1;fill-rule:nonzero;stroke:none"
       id="rect3353"
       width="1017.2986"
       height="214.69038"
       x="18.052097"
       y="821.76941" />
    <text
       sodipodi:linespacing="125%"
       id="text3006"
       y="997.64935"
       x="266.56619"
       style="font-size:200px;font-style:normal;font-variant:normal;font-weight:bold;font-stretch:normal;text-indent:0;text-align:start;text-decoration:none;line-height:125%;letter-spacing:0px;word-spacing:0px;text-transform:none;direction:ltr;block-progression:tb;writing-mode:lr-tb;text-anchor:start;baseline-shift:baseline;color:#000000;fill:#ffffff;fill-opacity:1;fill-rule:nonzero;stroke:none;stroke-width:1px;marker:none;visibility:visible;display:inline;overflow:visible;enable-background:accumulate;font-family:PT Sans;-inkscape-font-specification:Open Sans Bold"
       xml:space="preserve"><tspan
         style="font-size:200px;font-style:normal;font-variant:normal;font-weight:bold;font-stretch:normal;text-align:start;line-height:125%;writing-mode:lr-tb;text-anchor:start;fill:#ffffff;fill-opacity:1;font-family:Open Sans;-inkscape-font-specification:Open Sans Bold"
         y="997.64935"
         x="266.56619"
         id="tspan3008"
         sodipodi:role="line">Browse</tspan></text>
    <flowRoot
       style="font-size:16px;font-style:normal;font-variant:normal;font-weight:normal;font-stretch:normal;text-indent:0;text-align:start;text-decoration:none;line-height:125%;letter-spacing:0px;word-spacing:0px;text-transform:none;direction:ltr;block-progression:tb;writing-mode:lr-tb;text-anchor:start;baseline-shift:baseline;color:#000000;fill:#333333;fill-opacity:1;fill-rule:nonzero;stroke:none;stroke-width:1px;marker:none;visibility:visible;display:inline;overflow:visible;enable-background:accumulate;font-family:Open Sans;-inkscape-font-specification:Open Sans"
       id="flowRoot3010"
       xml:space="preserve"><flowRegion
         id="flowRegion3012"><rect
           y="432.23135"
           x="119.27397"
           height="73.315193"
           width="47.053032"
           id="rect3014" /></flowRegion><flowPara
         id="flowPara3016" /></flowRoot>    <flowRoot
       style="font-size:16px;font-style:normal;font-variant:normal;font-weight:normal;font-stretch:normal;text-indent:0;text-align:start;text-decoration:none;line-height:125%;letter-spacing:0px;word-spacing:0px;text-transform:none;direction:ltr;block-progression:tb;writing-mode:lr-tb;text-anchor:start;baseline-shift:baseline;color:#000000;fill:#333333;fill-opacity:1;fill-rule:nonzero;stroke:none;stroke-width:1px;marker:none;visibility:visible;display:inline;overflow:visible;enable-background:accumulate;font-family:Open Sans;-inkscape-font-specification:Open Sans"
       id="flowRoot3018"
       xml:space="preserve"><flowRegion
         id="flowRegion3020"><rect
           y="506.64081"
           x="167.42126"
           height="108.33141"
           width="155.38443"
           id="rect3022" /></flowRegion><flowPara
         id="flowPara3024" /></flowRoot>    <text
       xml:space="preserve"
       style="font-size:16px;font-style:normal;font-variant:normal;font-weight:normal;font-stretch:normal;text-indent:0;text-align:start;text-decoration:none;line-height:125%;letter-spacing:0px;word-spacing:0px;text-transform:none;direction:ltr;block-progression:tb;writing-mode:lr-tb;text-anchor:start;baseline-shift:baseline;color:#000000;fill:#333333;fill-opacity:1;fill-rule:nonzero;stroke:none;stroke-width:1px;marker:none;visibility:visible;display:inline;overflow:visible;enable-background:accumulate;font-family:Open Sans;-inkscape-font-specification:Open Sans"
       x="449.13235"
       y="550.02496"
       id="text2997"
       sodipodi:linespacing="125%"
       transform="translate(0,308.2677)"><tspan
         sodipodi:role="line"
         id="tspan2999"
         x="449.13235"
         y="550.02496" /></text>
    <g
       style="font-size:200px;font-style:normal;font-variant:normal;font-weight:bold;font-stretch:normal;text-indent:0;text-align:start;text-decoration:none;line-height:125%;letter-spacing:0px;word-spacing:0px;text-transform:none;direction:ltr;block-progression:tb;writing-mode:lr-tb;text-anchor:start;baseline-shift:baseline;color:#000000;fill:#ffffff;fill-opacity:1;fill-rule:nonzero;stroke:none;stroke-width:1px;marker:none;visibility:visible;display:inline;overflow:visible;enable-background:accumulate;font-family:PT Sans;-inkscape-font-specification:Open Sans Bold"
       id="text3012"
       transform="translate(21.333426,183.83511)">
      <path
         d="m 192.26007,813.80646 c -6.83593,-4e-5 -12.79296,-0.71619 -17.87109,-2.14844 l 0,-25.19531 c 5.20834,1.30206 9.96094,1.95311 14.25781,1.95312 6.64062,-10e-6 11.39322,-2.08335 14.25781,-6.25 2.86457,-4.10157 4.29688,-10.54687 4.29688,-19.33593 l 0,-91.78907 30.27343,0 0,91.59375 c 0,16.66666 -3.80863,29.36196 -11.42578,38.08594 -7.61721,8.72392 -18.88022,13.0859 -33.78906,13.08594"
         style="line-height:125%;fill:#ffffff;marker:none;font-family:Open Sans;-inkscape-font-specification:Open Sans Bold"
         id="path3017"
         inkscape:connector-curvature="0"
         sodipodi:nodetypes="cccscsccssc" />
    </g>
    <path
       inkscape:connector-curvature="0"
       style="fill:#0e53a7;fill-rule:nonzero;stroke:#000000;stroke-width:0;stroke-linejoin:round;stroke-miterlimit:4;stroke-dashoffset:0;marker-start:none;marker-mid:none;marker-end:none"
       d="m 171.28024,850.97078 c -1.6047,1.05742 -3.2348,2.1024 -5.0625,3.17417 -4.987,2.92464 -7.2842,3.67153 -13.5,6.59253 6.2138,2.9119 11.9584,5.82929 16.9375,8.74934 3.0425,1.78417 5.83865,3.63036 8.28125,5.53447 8.3028,-6.07013 9.60015,-9.83535 9.59375,-15.91159 -5e-4,-0.69755 -0.001,-5.40457 0,-8.13892 l -16.25,0 z m -58.4375,28.44552 c -0.4663,0.19332 -0.93955,0.41706 -1.40625,0.61042 -19.018698,7.88394 -34.484203,13.56213 -47.937503,21.44606 -0.03436,0.0202 -0.05946,0.0612 -0.09375,0.0814 -0.804746,0.47261 -1.611317,0.95186 -2.375,1.42431 -0.02876,0.0178 -0.06505,0.0229 -0.09375,0.0408 -0.764233,0.4738 -1.496791,0.95064 -2.21875,1.42431 -0.297922,0.19543 -0.584381,0.37432 -0.875,0.56973 -1.094144,0.73589 -2.136735,1.50255 -3.125,2.2382 -0.07128,0.0531 -0.148031,0.10978 -0.21875,0.16278 -0.216929,0.16273 -0.413368,0.32562 -0.625,0.48833 -0.429322,0.33013 -0.873973,0.64659 -1.28125,0.97667 -0.01187,0.009 -0.0194,0.0311 -0.03125,0.0408 -0.593616,0.48193 -1.172979,0.94244 -1.71875,1.42432 -0.01154,0.0104 -0.01974,0.0305 -0.03125,0.0408 -0.543797,0.4811 -1.067403,0.94324 -1.5625,1.42431 -0.01128,0.0104 -0.02,0.0297 -0.03125,0.0408 -0.493145,0.48034 -0.962661,0.98468 -1.40625,1.465 -0.0108,0.0117 -0.02048,0.029 -0.03125,0.0408 -0.441334,0.47933 -0.859016,0.94499 -1.25,1.42431 -0.01037,0.013 -0.02092,0.028 -0.03125,0.0408 -0.388769,0.47839 -0.75613,0.94589 -1.09375,1.42431 -0.0049,0.007 0.0049,0.0337 0,0.0408 -1.380096,1.96055 -2.333078,3.89809 -2.8125,5.86003 -0.0029,0.0117 0.0028,0.029 0,0.0408 -0.23463,0.97232 -0.373926,1.9571 -0.375,2.93001 0,2.32945 0.0605,22.60243 0.0625,27.95719 -0.016,0.29526 -0.0625,0.59834 -0.0625,0.89528 -0.0011,0.43449 0.04756,0.85897 0.09375,1.30223 0.01414,0.13358 0.01286,0.27264 0.03125,0.40695 0.05855,0.43351 0.147584,0.86166 0.25,1.30223 0.118678,0.51052 0.260912,1.02775 0.4375,1.54639 0.154845,0.45478 0.332651,0.92367 0.53125,1.38362 0.0303,0.0701 0.06245,0.13336 0.09375,0.20347 0.218208,0.49028 0.451939,0.97021 0.71875,1.46501 0.05129,0.0949 0.10319,0.18977 0.15625,0.28486 0.09284,0.16663 0.182997,0.3213 0.28125,0.48833 0.188348,0.32034 0.385645,0.61443 0.59375,0.93598 0.34904,0.54072 0.721033,1.08482 1.125,1.62778 0.365924,0.49183 0.746126,0.97253 1.15625,1.46501 0.04441,0.0534 0.08007,0.10939 0.125,0.16278 0.22945,0.27254 0.475986,0.54145 0.71875,0.81389 0.33649,0.37757 0.669499,0.76249 1.03125,1.13945 0.04139,0.0431 0.08328,0.0789 0.125,0.12202 0.376679,0.3894 0.753055,0.7513 1.15625,1.13945 0.501567,0.48354 1.020475,0.94376 1.5625,1.42431 0.1466,0.12996 0.287981,0.27723 0.4375,0.40694 0.530967,0.46073 1.088855,0.92692 1.65625,1.38362 0.25247,0.20316 0.521687,0.40818 0.78125,0.61042 2.439889,1.90104 5.181013,3.75303 8.21875,5.53447 4.982567,2.92196 10.750274,5.83552 16.96875,8.74934 0.385134,0.18049 0.798903,0.34855 1.1875,0.52903 1.611774,0.74807 3.238352,1.53087 4.90625,2.27889 0.250035,0.11239 0.49885,0.21322 0.75,0.32556 6.623299,2.95706 13.604633,5.90756 20.718753,8.87143 l 61.5625,0 c -1.1027,-0.69909 -2.183,-1.37699 -3.375,-2.07543 -13.454,-7.8838 -32.35539,-15.7191 -51.375,-23.60287 -0.446,-0.18477 -0.8667,-0.38487 -1.3125,-0.56973 -0.01,0.004 -0.0217,-0.004 -0.0313,0 -11.51288,-4.77383 -22.947466,-9.51558 -33.093753,-14.2838 -2.021262,-0.94989 -3.964336,-1.93919 -5.875,-2.88932 -1.624245,-0.80819 -3.186855,-1.59343 -4.7187,-2.40144 -0.621439,-0.32779 -1.238857,-0.64882 -1.84375,-0.97667 -1.540519,-0.84154 -3.041791,-1.68623 -4.46875,-2.52306 -5.1745,-3.03458 -10.4923,-7.23571 -13.9375,-10.33643 0.2646,-0.28373 0.5165,-0.58547 0.75,-0.8139 2.7157,-2.65931 7.8632,-6.23911 13.1875,-9.35975 13.4533,-7.88395 32.32496,-15.80035 51.343753,-23.68427 11.98861,-4.96792 20.53795,-7.6929 31.09375,-12.65602 -10.1474,-4.76809 -21.58094,-9.51006 -33.09375,-14.28381 z"
       id="use2776" />
    <path
       id="path5829"
       d="m 58.467742,999.87313 c 1.6047,-1.05742 3.2348,-2.1024 5.0625,-3.17417 4.987,-2.92464 7.2842,-3.67153 13.5,-6.59253 -6.2138,-2.9119 -11.9584,-5.82929 -16.9375,-8.74934 -3.0425,-1.78417 -5.83865,-3.63036 -8.28125,-5.53447 -8.3028,6.07013 -9.60015,9.83535 -9.59375,15.91159 5e-4,0.69755 10e-4,5.40457 0,8.13892 l 16.25,0 z m 58.437508,-28.44552 c 0.4663,-0.19332 0.93955,-0.41706 1.40625,-0.61042 19.01869,-7.88394 34.4842,-13.56213 47.9375,-21.44606 0.0344,-0.0202 0.0595,-0.0612 0.0937,-0.0814 0.80474,-0.47261 1.61131,-0.95186 2.375,-1.42431 0.0288,-0.0178 0.065,-0.0229 0.0937,-0.0408 0.76423,-0.4738 1.49679,-0.95064 2.21875,-1.42431 0.29792,-0.19543 0.58438,-0.37432 0.875,-0.56973 1.09414,-0.73589 2.13673,-1.50255 3.125,-2.2382 0.0713,-0.0531 0.14803,-0.10978 0.21875,-0.16278 0.21692,-0.16273 0.41336,-0.32562 0.625,-0.48833 0.42932,-0.33013 0.87397,-0.64659 1.28125,-0.97667 0.0119,-0.009 0.0194,-0.0311 0.0313,-0.0408 0.59361,-0.48193 1.17297,-0.94244 1.71875,-1.42432 0.0115,-0.0104 0.0197,-0.0305 0.0313,-0.0408 0.54379,-0.4811 1.0674,-0.94324 1.5625,-1.42431 0.0113,-0.0104 0.02,-0.0297 0.0313,-0.0408 0.49314,-0.48034 0.96266,-0.98468 1.40625,-1.465 0.0108,-0.0117 0.0205,-0.029 0.0313,-0.0408 0.44133,-0.47933 0.85901,-0.94499 1.25,-1.42431 0.0104,-0.013 0.0209,-0.028 0.0313,-0.0408 0.38876,-0.47839 0.75613,-0.94589 1.09375,-1.42431 0.005,-0.007 -0.005,-0.0337 0,-0.0408 1.38009,-1.96055 2.33307,-3.89809 2.8125,-5.86003 0.003,-0.0117 -0.003,-0.029 0,-0.0408 0.23463,-0.97232 0.37392,-1.9571 0.375,-2.93001 0,-2.32945 -0.0605,-22.60243 -0.0625,-27.95719 0.016,-0.29526 0.0625,-0.59834 0.0625,-0.89528 0.001,-0.43449 -0.0476,-0.85897 -0.0937,-1.30223 -0.0141,-0.13358 -0.0129,-0.27264 -0.0313,-0.40695 -0.0585,-0.43351 -0.14759,-0.86166 -0.25,-1.30223 -0.11868,-0.51052 -0.26092,-1.02775 -0.4375,-1.54639 -0.15485,-0.45478 -0.33266,-0.92367 -0.53125,-1.38362 -0.0303,-0.0701 -0.0625,-0.13336 -0.0937,-0.20347 -0.21821,-0.49028 -0.45194,-0.97021 -0.71875,-1.46501 -0.0513,-0.0949 -0.10319,-0.18977 -0.15625,-0.28486 -0.0928,-0.16663 -0.183,-0.3213 -0.28125,-0.48833 -0.18835,-0.32034 -0.38565,-0.61443 -0.59375,-0.93598 -0.34904,-0.54072 -0.72104,-1.08482 -1.125,-1.62778 -0.36593,-0.49183 -0.74613,-0.97253 -1.15625,-1.46501 -0.0444,-0.0534 -0.0801,-0.10939 -0.125,-0.16278 -0.22945,-0.27254 -0.47599,-0.54145 -0.71875,-0.81389 -0.33649,-0.37757 -0.6695,-0.76249 -1.03125,-1.13945 -0.0414,-0.0431 -0.0833,-0.0789 -0.125,-0.12202 -0.37668,-0.3894 -0.75306,-0.7513 -1.15625,-1.13945 -0.50157,-0.48354 -1.02048,-0.94376 -1.5625,-1.42431 -0.1466,-0.12996 -0.28799,-0.27723 -0.4375,-0.40694 -0.53097,-0.46073 -1.08886,-0.92692 -1.65625,-1.38362 -0.25247,-0.20316 -0.52169,-0.40818 -0.78125,-0.61042 -2.43989,-1.90104 -5.18102,-3.75303 -8.21875,-5.53447 -4.98257,-2.92196 -10.75028,-5.83552 -16.96875,-8.74934 -0.38514,-0.18049 -0.79891,-0.34855 -1.1875,-0.52903 -1.61178,-0.74807 -3.23836,-1.53087 -4.90625,-2.27889 -0.25004,-0.11239 -0.49885,-0.21322 -0.75,-0.32556 -6.6233,-2.95706 -13.60463,-5.90756 -20.71875,-8.87143 l -61.562508,0 c 1.1027,0.69909 2.183,1.37699 3.375,2.07543 13.454,7.8838 32.35539,15.7191 51.375008,23.60287 0.446,0.18477 0.8667,0.38487 1.3125,0.56973 0.01,-0.004 0.0217,0.004 0.0313,0 11.51288,4.77383 22.94746,9.51558 33.09375,14.2838 2.02126,0.94989 3.96433,1.93919 5.875,2.88932 1.62424,0.80819 3.18685,1.59343 4.7187,2.40144 0.62143,0.32779 1.23885,0.64882 1.84375,0.97667 1.54051,0.84154 3.04179,1.68623 4.46875,2.52306 5.1745,3.03458 10.4923,7.23571 13.9375,10.33643 -0.2646,0.28373 -0.5165,0.58547 -0.75,0.8139 -2.7157,2.65931 -7.8632,6.23911 -13.1875,9.35975 -13.4533,7.88395 -32.32496,15.80035 -51.34375,23.68427 -11.98861,4.96792 -20.537958,7.6929 -31.093758,12.65602 10.1474,4.76809 21.580948,9.51006 33.093758,14.28381 z"
       style="fill:#6899d3;fill-rule:nonzero;stroke:#000000;stroke-width:0;stroke-linejoin:round;stroke-miterlimit:4;stroke-dashoffset:0;marker-start:none;marker-mid:none;marker-end:none"
       inkscape:connector-curvature="0" />
  </g>
  <g
     id="g3285"
     inkscape:groupmode="layer"
     inkscape:label="lorem ipsum"
     transform="translate(0,-494.09548)" />
</svg>
