<?xml version="1.0" encoding="UTF-8" standalone="no"?>
<!-- Created with Inkscape (http://www.inkscape.org/) -->

<svg
   xmlns:dc="http://purl.org/dc/elements/1.1/"
   xmlns:cc="http://creativecommons.org/ns#"
   xmlns:rdf="http://www.w3.org/1999/02/22-rdf-syntax-ns#"
   xmlns:svg="http://www.w3.org/2000/svg"
   xmlns="http://www.w3.org/2000/svg"
   xmlns:xlink="http://www.w3.org/1999/xlink"
   xmlns:sodipodi="http://sodipodi.sourceforge.net/DTD/sodipodi-0.dtd"
   xmlns:inkscape="http://www.inkscape.org/namespaces/inkscape"
   sodipodi:docname="logo.svg"
   inkscape:version="0.48.3.1 r9886"
   version="1.1"
   id="svg2"
   height="900"
   width="1440"
   inkscape:export-filename="/home/ederohanian/Desktop/logo.png"
   inkscape:export-xdpi="90"
   inkscape:export-ydpi="90"
   style="enable-background:new">
  <sodipodi:namedview
     id="base"
     pagecolor="#ffffff"
     bordercolor="#666666"
     borderopacity="1.0"
     inkscape:pageopacity="0.0"
     inkscape:pageshadow="2"
     inkscape:zoom="0.41393476"
     inkscape:cx="428.61502"
     inkscape:cy="271.4572"
     inkscape:document-units="px"
     inkscape:current-layer="layer1"
     showgrid="false"
     inkscape:window-width="1440"
     inkscape:window-height="841"
     inkscape:window-x="0"
     inkscape:window-y="35"
     inkscape:window-maximized="1"
     showguides="true"
     inkscape:guide-bbox="true"
     inkscape:snap-global="false"
     fit-margin-top="5"
     fit-margin-left="5"
     fit-margin-bottom="5"
     fit-margin-right="5">
    <inkscape:grid
       type="xygrid"
       id="grid3010"
       empspacing="5"
       visible="true"
       enabled="true"
       snapvisiblegridlinesonly="true"
       originx="-15.819668px"
       originy="-17.690022px" />
  </sodipodi:namedview>
  <defs
     id="defs4">
    <linearGradient
       id="linearGradient5280">
      <stop
         offset="0"
         id="stop5282"
         stop-color="black"
         style="stop-color:#ffffff;stop-opacity:0;" />
      <stop
         offset="1"
         id="stop5284"
         stop-opacity="0"
         stop-color="black"
         style="stop-color:#000000;stop-opacity:1;" />
    </linearGradient>
    <linearGradient
       id="linearGradient5216">
      <stop
         id="stop5228"
         offset="0"
         style="stop-color:#000000;stop-opacity:1;" />
      <stop
         style="stop-color:#000000;stop-opacity:0;"
         offset="0.5"
         id="stop5230" />
      <stop
         style="stop-color:#000000;stop-opacity:1;"
         offset="1"
         id="stop5220" />
    </linearGradient>
    <linearGradient
       y2="21.289431"
       x2="291.4877"
       y1="39.627937"
       x1="291.4877"
       id="linearGradient2930"
       xlink:href="#linearGradient9251"
       gradientTransform="scale(0.26082033,3.8340569)"
       gradientUnits="userSpaceOnUse" />
    <linearGradient
       y2="23.646412"
       x2="332.19244"
       y1="42.122169"
       x1="332.19244"
       id="linearGradient2926"
       xlink:href="#linearGradient8354"
       gradientTransform="scale(0.25808947,3.8746253)"
       gradientUnits="userSpaceOnUse" />
    <linearGradient
       id="linearGradient8354">
      <stop
         stop-color="black"
         id="stop8356"
         offset="0" />
      <stop
         stop-color="black"
         stop-opacity="0"
         id="stop8358"
         offset="1" />
    </linearGradient>
    <linearGradient
       id="linearGradient9251">
      <stop
         stop-color="black"
         id="stop9253"
         offset="0"
         style="stop-color:#000000;stop-opacity:0;" />
      <stop
         offset="0.5"
         id="stop5258"
         stop-color="black"
         style="stop-color:#000000;stop-opacity:1;" />
      <stop
         stop-color="black"
         stop-opacity="0"
         id="stop9255"
         offset="1" />
    </linearGradient>
    <linearGradient
       inkscape:collect="always"
       xlink:href="#linearGradient9251"
       id="linearGradient5736"
       gradientUnits="userSpaceOnUse"
       gradientTransform="matrix(0.26082033,0,0,3.8340569,379.17283,-1464.9932)"
       x1="291.4877"
       y1="39.627937"
       x2="291.4877"
       y2="21.289431" />
    <linearGradient
       inkscape:collect="always"
       xlink:href="#linearGradient8354"
       id="linearGradient5739"
       gradientUnits="userSpaceOnUse"
       gradientTransform="matrix(0.25808947,0,0,3.8746253,379.17283,-1464.9932)"
       x1="332.19244"
       y1="42.122169"
       x2="332.19244"
       y2="23.646412" />
    <filter
       id="filter5899"
       y="-0.15000001"
       height="1.3"
       x="-0.15000001"
       width="1.3"
       inkscape:menu-tooltip="Aquarelle paper effect which can be used for pictures as for objects"
       inkscape:menu="Textures"
       inkscape:label="Rough paper"
       color-interpolation-filters="sRGB">
      <feTurbulence
         id="feTurbulence5901"
         type="fractalNoise"
         baseFrequency="0.04"
         numOctaves="5"
         seed="0"
         result="result4" />
      <feDisplacementMap
         in2="result4"
         id="feDisplacementMap5903"
         in="SourceGraphic"
         yChannelSelector="G"
         xChannelSelector="R"
         scale="10"
         result="result3" />
      <feDiffuseLighting
         id="feDiffuseLighting5905"
         lighting-color="#e9e6d7"
         diffuseConstant="1"
         surfaceScale="2"
         result="result1"
         in="result4">
        <feDistantLight
           id="feDistantLight5907"
           azimuth="235"
           elevation="40" />
      </feDiffuseLighting>
      <feComposite
         in2="result1"
         id="feComposite5909"
         operator="in"
         in="result3"
         result="result2" />
      <feComposite
         in2="result1"
         id="feComposite5911"
         result="result5"
         operator="arithmetic"
         k1="1.7"
         k2="0"
         k3="0"
         k4="0" />
      <feBlend
         in2="result3"
         id="feBlend5913"
         in="result5"
         mode="normal" />
    </filter>
    <filter
       id="filter5995"
       inkscape:label="Noise transparency"
       inkscape:menu="ABCs"
       inkscape:menu-tooltip="Basic noise transparency texture"
       color-interpolation-filters="sRGB">
      <feTurbulence
         id="feTurbulence5997"
         type="fractalNoise"
         numOctaves="5"
         baseFrequency="0.02"
         result="result1" />
      <feComposite
         id="feComposite5999"
         in2="result1"
         operator="in"
         result="result2"
         in="SourceGraphic" />
      <feColorMatrix
         id="feColorMatrix6001"
         result="result3"
         values="1 0 0 0 0 0 1 0 0 0 0 0 1 0 0 0 0 0 3 -1 "
         in="result2" />
    </filter>
    <linearGradient
       inkscape:collect="always"
       xlink:href="#linearGradient8354"
       id="linearGradient5256"
       x1="50.316067"
       y1="161.57812"
       x2="177.59375"
       y2="162.98021"
       gradientUnits="userSpaceOnUse"
       gradientTransform="translate(0,802.36329)" />
    <linearGradient
       inkscape:collect="always"
       xlink:href="#linearGradient5216"
       id="linearGradient5266"
       gradientUnits="userSpaceOnUse"
       gradientTransform="matrix(-1,0,0,-1,245.90396,1052.8945)"
       x1="50.34301"
       y1="95.453918"
       x2="195.58789"
       y2="95.453918" />
    <linearGradient
       inkscape:collect="always"
       xlink:href="#linearGradient5280"
       id="linearGradient5278"
       gradientUnits="userSpaceOnUse"
       gradientTransform="matrix(-1,0,0,-1,245.90396,1052.8945)"
       x1="50.316067"
       y1="161.57812"
       x2="177.59375"
       y2="161.57812" />
    <linearGradient
       inkscape:collect="always"
       xlink:href="#linearGradient9251"
       id="linearGradient5307"
       gradientUnits="userSpaceOnUse"
       x1="50.34301"
       y1="95.453918"
       x2="195.58789"
       y2="95.453918" />
    <linearGradient
       inkscape:collect="always"
       xlink:href="#linearGradient5280"
       id="linearGradient6147"
       gradientUnits="userSpaceOnUse"
       x1="50.34301"
       y1="95.453918"
       x2="195.58789"
       y2="95.453918"
       gradientTransform="translate(251.38889,-348.61111)" />
    <linearGradient
       inkscape:collect="always"
       xlink:href="#linearGradient8354"
       id="linearGradient6149"
       gradientUnits="userSpaceOnUse"
       gradientTransform="matrix(-1,0,0,-1,497.29285,-98.079901)"
       x1="50.34301"
       y1="95.453918"
       x2="195.58789"
       y2="95.453918" />
    <linearGradient
       inkscape:collect="always"
       xlink:href="#linearGradient5280"
       id="linearGradient6306"
       gradientUnits="userSpaceOnUse"
       gradientTransform="matrix(-1,0,0,-1,497.29285,-98.079901)"
       x1="50.316067"
       y1="161.57812"
       x2="177.59375"
       y2="161.57812" />
    <linearGradient
       inkscape:collect="always"
       xlink:href="#linearGradient8354"
       id="linearGradient6308"
       gradientUnits="userSpaceOnUse"
       gradientTransform="translate(251.38889,-348.61111)"
       x1="50.316067"
       y1="161.57812"
       x2="177.59375"
       y2="162.98021" />
    <filter
       inkscape:collect="always"
       id="filter6362"
       color-interpolation-filters="sRGB">
      <feBlend
         inkscape:collect="always"
         mode="multiply"
         in2="BackgroundImage"
         id="feBlend6364" />
    </filter>
    <linearGradient
       inkscape:collect="always"
       xlink:href="#linearGradient5280"
       id="linearGradient6384"
       x1="21.373451"
       y1="927.4342"
       x2="279.75629"
       y2="927.4342"
       gradientUnits="userSpaceOnUse" />
    <filter
       inkscape:collect="always"
       id="filter6816">
      <feGaussianBlur
         inkscape:collect="always"
         stdDeviation="2.935"
         id="feGaussianBlur6818" />
    </filter>
  </defs>
  <metadata
     id="metadata7">
    <rdf:RDF>
      <cc:Work
         rdf:about="">
        <dc:format>image/svg+xml</dc:format>
        <dc:type
           rdf:resource="http://purl.org/dc/dcmitype/StillImage" />
        <dc:title></dc:title>
      </cc:Work>
    </rdf:RDF>
  </metadata>
  <g
     transform="translate(-15.819668,-134.67326)"
     id="layer1"
     inkscape:groupmode="layer"
     inkscape:label="Text">
    <rect
       style="fill:#ffffff;fill-opacity:1;fill-rule:nonzero;stroke:#030094;stroke-width:0.10000000000000001;stroke-linecap:square;stroke-linejoin:miter;stroke-miterlimit:4;stroke-opacity:1;stroke-dasharray:none;stroke-dashoffset:0"
       id="rect6820"
       width="1193.4248"
       height="591.88074"
       x="113.54446"
       y="165.58475"
       transform="translate(15.819668,134.67326)" />
    <path
       style="fill:#000000;fill-opacity:1;fill-rule:nonzero;stroke:#030094;stroke-width:0.1;stroke-linecap:square;stroke-linejoin:miter;stroke-miterlimit:4;stroke-opacity:1;stroke-dashoffset:0;filter:url(#filter6816)"
       d="m 423.81967,382.67326 0,330 844.00003,0 0,-330 -844.00003,0 z m 88.21875,123.90625 10.375,0 0,111.1875 c 0,25.0035 -11.57602,37.4999 -34.75,37.5 -6.23393,-10e-5 -11.34588,-0.92054 -15.34375,-2.75 l 0,-8.9375 c 5.28531,1.3552 10.31403,2.03125 15.125,2.03125 16.39796,0 24.59375,-8.95505 24.59375,-26.84375 l 0,-112.1875 z m 30,0 40.78125,0 c 18.36294,1.5e-4 31.83185,3.10995 40.4375,9.34375 8.60544,6.23408 12.90614,15.64672 12.90625,28.25 -1.1e-4,8.60565 -2.65232,15.77172 -7.9375,21.53125 -5.21764,5.69194 -12.87257,9.37383 -22.96875,11 l 0,0.59375 c 11.85794,1.76184 20.56855,5.5217 26.125,11.28125 5.62398,5.69192 8.43738,13.67451 8.4375,23.90625 -1.2e-4,13.6876 -4.54524,24.20791 -13.625,31.59375 -9.07997,7.38587 -21.95606,11.09375 -38.625,11.09375 l -45.53125,0 0,-148.59375 z m 10.375,9.125 0,57.03125 32.71875,0 c 13.95854,8e-5 24.10446,-2.29847 30.40625,-6.90625 6.36936,-4.67537 9.56239,-11.9819 9.5625,-21.875 -1.1e-4,-9.89287 -3.59877,-17.05894 -10.78125,-21.53125 -7.11491,-4.47203 -17.74443,-6.71861 -31.90625,-6.71875 l -30,0 z m 147.40625,26.84375 c 4.67539,1.1e-4 9.67812,0.45772 15.03125,1.40625 l -1.9375,9.65625 c -4.60777,-1.15182 -9.36607,-1.71865 -14.3125,-1.71875 -9.41873,10e-5 -17.15689,4.00439 -23.1875,12 -6.0307,7.99579 -9.03127,18.08448 -9.03125,30.28125 l 0,61 -10.0625,0 0,-110.5 8.53125,0 1,19.9375 0.71875,0 c 4.53991,-8.13113 9.38143,-13.84115 14.53125,-17.09375 5.14973,-3.32014 11.40059,-4.96864 18.71875,-4.96875 z m 69.65625,0 c 15.17822,1.1e-4 27.05061,5.11206 35.65625,15.34375 8.6732,10.16412 13.03114,24.12189 13.03125,41.875 -1.1e-4,18.02426 -4.38404,32.11723 -13.125,42.28125 -8.74116,10.09627 -20.806,15.15625 -36.1875,15.15625 -9.68977,0 -18.20793,-2.35579 -25.59375,-7.03125 -7.3859,-4.67544 -13.03868,-11.38391 -16.96875,-20.125 -3.93011,-8.74103 -5.90626,-18.82973 -5.90625,-30.28125 -10e-6,-18.02415 4.35267,-32.0339 13.09375,-42.0625 8.74104,-10.09617 20.7539,-15.15614 36,-15.15625 z m 249.37498,0 c 11.9258,1.1e-4 23.2313,2.24668 33.9376,6.71875 l -3.75,9.125 c -10.8419,-4.47207 -20.9045,-6.6874 -30.1876,-6.6875 -9.0121,10e-5 -16.1835,1.4874 -21.46873,4.46875 -5.28532,2.98155 -7.90627,7.12104 -7.90625,12.40625 -2e-5,5.7597 2.02812,10.3568 6.09375,13.8125 4.13335,3.45584 12.16783,7.32492 24.09383,11.59375 9.9605,3.59135 17.2099,6.83637 21.75,9.75 4.5398,2.84598 7.92,6.09099 10.1562,9.75 2.3037,3.65909 3.4374,7.95979 3.4375,12.90625 -10e-5,9.89301 -3.7599,17.52195 -11.2813,22.875 -7.5213,5.2853 -18.1769,7.9375 -32,7.9375 -14.7717,0 -26.48294,-2.27257 -35.15623,-6.8125 l 0,-10.875 c 11.11266,5.55635 22.8239,8.3125 35.15623,8.3125 10.9095,0 19.1884,-1.7837 24.8126,-5.375 5.6918,-3.65904 8.5311,-8.50057 8.5312,-14.53125 -10e-5,-5.55631 -2.2727,-10.23664 -6.8125,-14.03125 -4.4723,-3.79453 -11.8567,-7.5284 -22.1563,-11.1875 -11.045,-3.9978 -18.80908,-7.40401 -23.28123,-10.25 -4.47219,-2.91362 -7.85242,-6.15864 -10.15625,-9.75 -2.2361,-3.65898 -3.37501,-8.09488 -3.375,-13.3125 -10e-6,-8.26666 3.46344,-14.81392 10.375,-19.625 6.97928,-4.81087 16.71958,-7.21864 29.18748,-7.21875 z m 99.3438,0 c 13.0099,1.1e-4 23.291,4.54524 30.8125,13.625 7.5212,9.07997 11.2812,21.41523 11.2813,37 l 0,8.125 -79.5938,0 c 0.1355,15.17833 3.651,26.75431 10.5625,34.75 6.9793,7.99571 16.964,12 29.9063,12 6.3016,0 11.8192,-0.43161 16.5624,-1.3125 4.8109,-0.88087 10.8693,-2.7738 18.1876,-5.6875 l 0,9.125 c -6.234,2.71042 -11.996,4.55136 -17.2813,5.5 -5.2853,1.01641 -11.0993,1.53125 -17.4687,1.53125 -16.0592,0 -28.6131,-4.95075 -37.625,-14.84375 -8.9445,-9.89297 -13.4063,-23.74152 -13.4063,-41.5625 0,-17.61759 4.3267,-31.71057 13,-42.28125 8.6733,-10.63825 20.3585,-15.96864 35.0625,-15.96875 z m -292.75003,2.125 10.75,0 17.6875,64.03125 c 4.13334,15.85593 6.83752,27.51514 8.125,34.96875 l 0.625,0 c 3.99781,-15.85587 6.92042,-26.37617 8.75,-31.59375 l 22.75,-67.40625 9.15625,0 21.65625,67.1875 c 4.87863,15.92368 7.85322,26.47524 8.9375,31.625 l 0.625,0 c 0.54197,-4.4044 3.24614,-16.19883 8.125,-35.375 l 16.875,-63.4375 10.15625,0 -30,110.5 -10.5625,0 -24.1875,-73.90625 c -1.55856,-5.01418 -3.56071,-12.3727 -6,-22.0625 l -0.59375,0 -2.15625,7.53125 -4.5625,14.75 -24.59375,73.6875 -9.96875,0 -31.59375,-110.5 z m 292.75003,6.8125 c -10.6384,10e-5 -19.1567,3.51554 -25.5938,10.5625 -6.4373,6.97939 -10.1971,17.09933 -11.2812,30.3125 l 68.2812,0 c 0,-12.80661 -2.7563,-22.81733 -8.3124,-30 -5.5564,-7.25025 -13.2686,-10.8749 -23.0938,-10.875 z m -349.12503,0.21875 c -12.19689,10e-5 -21.60954,4.19158 -28.25,12.59375 -6.57277,8.33459 -9.87502,20.155 -9.875,35.46875 -2e-5,15.17833 3.32822,27.02474 9.96875,35.5625 6.70822,8.47004 16.14686,12.71875 28.34375,12.71875 12.19677,0 21.64066,-4.24871 28.28125,-12.71875 6.70817,-8.53776 10.06241,-20.38417 10.0625,-35.5625 -9e-5,-15.24599 -3.41157,-27.0664 -10.1875,-35.46875 -6.70835,-8.40217 -16.14698,-12.59365 -28.34375,-12.59375 z m -216.65625,30.1875 0,64.125 34.96875,0 c 27.51057,10e-6 41.24989,-11.17035 41.25,-33.53125 -1.1e-4,-20.39577 -14.49871,-30.59367 -43.5,-30.59375 l -32.71875,0 z"
       id="rect6707"
       inkscape:connector-curvature="0" />
    <path
       style="fill:#333333;fill-opacity:1;fill-rule:nonzero;stroke:none"
       d="M 0.125 0 L 0.125 900.03125 L 1440 900.03125 L 1440 0 L 0.125 0 z M 494.21875 369.90625 L 504.59375 369.90625 L 504.59375 481.09375 C 504.59375 506.09725 493.01773 518.59365 469.84375 518.59375 C 463.60982 518.59365 458.49787 517.67321 454.5 515.84375 L 454.5 506.90625 C 459.78531 508.26145 464.81403 508.9375 469.625 508.9375 C 486.02296 508.9375 494.21875 499.98245 494.21875 482.09375 L 494.21875 369.90625 z M 524.21875 369.90625 L 565 369.90625 C 583.36294 369.9064 596.83185 373.0162 605.4375 379.25 C 614.04294 385.48408 618.34364 394.89672 618.34375 407.5 C 618.34364 416.10565 615.69143 423.27172 610.40625 429.03125 C 605.18861 434.72319 597.53368 438.40508 587.4375 440.03125 L 587.4375 440.625 C 599.29544 442.38684 608.00605 446.1467 613.5625 451.90625 C 619.18648 457.59817 621.99988 465.58076 622 475.8125 C 621.99988 489.5001 617.45476 500.02041 608.375 507.40625 C 599.29503 514.79212 586.41894 518.5 569.75 518.5 L 524.21875 518.5 L 524.21875 369.90625 z M 534.59375 379.03125 L 534.59375 436.0625 L 567.3125 436.0625 C 581.27104 436.06258 591.41696 433.76403 597.71875 429.15625 C 604.08811 424.48088 607.28114 417.17435 607.28125 407.28125 C 607.28114 397.38838 603.68248 390.22231 596.5 385.75 C 589.38509 381.27797 578.75557 379.03139 564.59375 379.03125 L 534.59375 379.03125 z M 682 405.875 C 686.67539 405.87511 691.67812 406.33272 697.03125 407.28125 L 695.09375 416.9375 C 690.48598 415.78568 685.72768 415.21885 680.78125 415.21875 C 671.36252 415.21885 663.62436 419.22314 657.59375 427.21875 C 651.56305 435.21454 648.56248 445.30323 648.5625 457.5 L 648.5625 518.5 L 638.5 518.5 L 638.5 408 L 647.03125 408 L 648.03125 427.9375 L 648.75 427.9375 C 653.28991 419.80637 658.13143 414.09635 663.28125 410.84375 C 668.43098 407.52361 674.68184 405.87511 682 405.875 z M 751.65625 405.875 C 766.83447 405.87511 778.70686 410.98706 787.3125 421.21875 C 795.9857 431.38287 800.34364 445.34064 800.34375 463.09375 C 800.34364 481.11801 795.95971 495.21098 787.21875 505.375 C 778.47759 515.47127 766.41275 520.53125 751.03125 520.53125 C 741.34148 520.53125 732.82332 518.17546 725.4375 513.5 C 718.0516 508.82456 712.39882 502.11609 708.46875 493.375 C 704.53864 484.63397 702.56249 474.54527 702.5625 463.09375 C 702.56249 445.0696 706.91517 431.05985 715.65625 421.03125 C 724.39729 410.93508 736.41015 405.87511 751.65625 405.875 z M 1001.0312 405.875 C 1012.957 405.87511 1024.2625 408.12168 1034.9688 412.59375 L 1031.2188 421.71875 C 1020.3769 417.24668 1010.3143 415.03135 1001.0312 415.03125 C 992.0191 415.03135 984.84775 416.51865 979.5625 419.5 C 974.27718 422.48155 971.65623 426.62104 971.65625 431.90625 C 971.65623 437.66595 973.68437 442.26305 977.75 445.71875 C 981.88335 449.17459 989.9178 453.04367 1001.8438 457.3125 C 1011.8043 460.90385 1019.0537 464.14887 1023.5938 467.0625 C 1028.1336 469.90848 1031.5138 473.15349 1033.75 476.8125 C 1036.0537 480.47159 1037.1874 484.77229 1037.1875 489.71875 C 1037.1874 499.61176 1033.4276 507.2407 1025.9062 512.59375 C 1018.3849 517.87905 1007.7293 520.53125 993.90625 520.53125 C 979.13453 520.53125 967.42329 518.25868 958.75 513.71875 L 958.75 502.84375 C 969.86266 508.4001 981.5739 511.15625 993.90625 511.15625 C 1004.8157 511.15625 1013.0946 509.37255 1018.7188 505.78125 C 1024.4106 502.12221 1027.2499 497.28068 1027.25 491.25 C 1027.2499 485.69369 1024.9773 481.01336 1020.4375 477.21875 C 1015.9652 473.42422 1008.5808 469.69035 998.28125 466.03125 C 987.23625 462.03345 979.47215 458.62724 975 455.78125 C 970.52781 452.86763 967.14758 449.62261 964.84375 446.03125 C 962.60765 442.37227 961.46874 437.93637 961.46875 432.71875 C 961.46874 424.45209 964.93219 417.90483 971.84375 413.09375 C 978.82303 408.28288 988.5633 405.87511 1001.0312 405.875 z M 1100.375 405.875 C 1113.3849 405.87511 1123.666 410.42024 1131.1875 419.5 C 1138.7087 428.57997 1142.4687 440.91523 1142.4688 456.5 L 1142.4688 464.625 L 1062.875 464.625 C 1063.0105 479.80333 1066.526 491.37931 1073.4375 499.375 C 1080.4168 507.37071 1090.4015 511.375 1103.3438 511.375 C 1109.6454 511.375 1115.163 510.94339 1119.9062 510.0625 C 1124.7171 509.18163 1130.7755 507.2887 1138.0938 504.375 L 1138.0938 513.5 C 1131.8598 516.21042 1126.0978 518.05136 1120.8125 519 C 1115.5272 520.01641 1109.7132 520.53125 1103.3438 520.53125 C 1087.2846 520.53125 1074.7307 515.5805 1065.7188 505.6875 C 1056.7743 495.79453 1052.3125 481.94598 1052.3125 464.125 C 1052.3125 446.50741 1056.6392 432.41443 1065.3125 421.84375 C 1073.9858 411.2055 1085.671 405.87511 1100.375 405.875 z M 807.625 408 L 818.375 408 L 836.0625 472.03125 C 840.19584 487.88718 842.90002 499.54639 844.1875 507 L 844.8125 507 C 848.81031 491.14413 851.73292 480.62383 853.5625 475.40625 L 876.3125 408 L 885.46875 408 L 907.125 475.1875 C 912.00363 491.11118 914.97822 501.66274 916.0625 506.8125 L 916.6875 506.8125 C 917.22947 502.4081 919.93364 490.61367 924.8125 471.4375 L 941.6875 408 L 951.84375 408 L 921.84375 518.5 L 911.28125 518.5 L 887.09375 444.59375 C 885.53519 439.57957 883.53304 432.22105 881.09375 422.53125 L 880.5 422.53125 L 878.34375 430.0625 L 873.78125 444.8125 L 849.1875 518.5 L 839.21875 518.5 L 807.625 408 z M 1100.375 414.8125 C 1089.7366 414.8126 1081.2183 418.32804 1074.7812 425.375 C 1068.3439 432.35439 1064.5841 442.47433 1063.5 455.6875 L 1131.7812 455.6875 C 1131.7812 442.88089 1129.0249 432.87017 1123.4688 425.6875 C 1117.9124 418.43725 1110.2002 414.8126 1100.375 414.8125 z M 751.25 415.03125 C 739.05311 415.03135 729.64046 419.22283 723 427.625 C 716.42723 435.95959 713.12498 447.78 713.125 463.09375 C 713.12498 478.27208 716.45322 490.11849 723.09375 498.65625 C 729.80197 507.12629 739.24061 511.375 751.4375 511.375 C 763.63427 511.375 773.07816 507.12629 779.71875 498.65625 C 786.42692 490.11849 789.78116 478.27208 789.78125 463.09375 C 789.78116 447.84776 786.36968 436.02735 779.59375 427.625 C 772.8854 419.22283 763.44677 415.03135 751.25 415.03125 z M 534.59375 445.21875 L 534.59375 509.34375 L 569.5625 509.34375 C 597.07307 509.34376 610.81239 498.1734 610.8125 475.8125 C 610.81239 455.41673 596.31379 445.21883 567.3125 445.21875 L 534.59375 445.21875 z "
       id="rect3353"
       transform="translate(15.819668,134.67326)" />
    <flowRoot
       style="font-size:16px;font-style:normal;font-variant:normal;font-weight:normal;font-stretch:normal;text-indent:0;text-align:start;text-decoration:none;line-height:125%;letter-spacing:0px;word-spacing:0px;text-transform:none;direction:ltr;block-progression:tb;writing-mode:lr-tb;text-anchor:start;baseline-shift:baseline;color:#000000;fill:#333333;fill-opacity:1;fill-rule:nonzero;stroke:none;stroke-width:1px;marker:none;visibility:visible;display:inline;overflow:visible;enable-background:accumulate;font-family:Open Sans;-inkscape-font-specification:Open Sans"
       id="flowRoot3010"
       xml:space="preserve"
       transform="matrix(1.0407973,0,0,1.0407973,4.3759398,-36.577333)"><flowRegion
         id="flowRegion3012"><rect
           y="432.23135"
           x="119.27397"
           height="73.315193"
           width="47.053032"
           id="rect3014" /></flowRegion><flowPara
         id="flowPara3016" /></flowRoot>    <flowRoot
       style="font-size:16px;font-style:normal;font-variant:normal;font-weight:normal;font-stretch:normal;text-indent:0;text-align:start;text-decoration:none;line-height:125%;letter-spacing:0px;word-spacing:0px;text-transform:none;direction:ltr;block-progression:tb;writing-mode:lr-tb;text-anchor:start;baseline-shift:baseline;color:#000000;fill:#333333;fill-opacity:1;fill-rule:nonzero;stroke:none;stroke-width:1px;marker:none;visibility:visible;display:inline;overflow:visible;enable-background:accumulate;font-family:Open Sans;-inkscape-font-specification:Open Sans"
       id="flowRoot3018"
       xml:space="preserve"
       transform="matrix(1.0407973,0,0,1.0407973,4.3759398,-36.577333)"><flowRegion
         id="flowRegion3020"><rect
           y="506.64081"
           x="167.42126"
           height="108.33141"
           width="155.38443"
           id="rect3022" /></flowRegion><flowPara
         id="flowPara3024" /></flowRoot>    <text
       xml:space="preserve"
       style="font-size:16.65275764px;font-style:normal;font-variant:normal;font-weight:normal;font-stretch:normal;text-indent:0;text-align:start;text-decoration:none;line-height:125%;letter-spacing:0px;word-spacing:0px;text-transform:none;direction:ltr;block-progression:tb;writing-mode:lr-tb;text-anchor:start;baseline-shift:baseline;color:#000000;fill:#333333;fill-opacity:1;fill-rule:nonzero;stroke:none;stroke-width:1px;marker:none;visibility:visible;display:inline;overflow:visible;enable-background:accumulate;font-family:Open Sans;-inkscape-font-specification:Open Sans"
       x="471.8317"
       y="856.73138"
       id="text2997"
       sodipodi:linespacing="125%"><tspan
         sodipodi:role="line"
         id="tspan2999"
         x="471.8317"
         y="856.73138" /></text>
    <text
       xml:space="preserve"
       style="font-size:16px;font-style:normal;font-variant:normal;font-weight:normal;font-stretch:normal;text-indent:0;text-align:start;text-decoration:none;line-height:125%;letter-spacing:0px;word-spacing:0px;text-transform:none;direction:ltr;block-progression:tb;writing-mode:lr-tb;text-anchor:start;baseline-shift:baseline;color:#000000;fill:#333333;fill-opacity:1;fill-rule:nonzero;stroke:none;stroke-width:1px;marker:none;visibility:visible;display:inline;overflow:visible;enable-background:accumulate;font-family:Open Sans;-inkscape-font-specification:Open Sans"
       x="445.08197"
       y="-23.770493"
       id="text5332"
       sodipodi:linespacing="125%"
       transform="translate(0,802.36329)"><tspan
         sodipodi:role="line"
         id="tspan5334"
         x="445.08197"
         y="-23.770493" /></text>
  </g>
  <g
     inkscape:groupmode="layer"
     id="layer3"
     inkscape:label="Logo base"
     style="display:inline"
     transform="translate(1.8383789e-7,685.38002)">
    <path
       inkscape:connector-curvature="0"
       style="fill:#4284d3;fill-opacity:1;fill-rule:nonzero;stroke:#000000;stroke-width:0;stroke-linejoin:round;stroke-miterlimit:4;stroke-dashoffset:0;marker-start:none;marker-mid:none;marker-end:none"
       d="m 414.85969,-315.42152 c -6.01312,4.22053 -11.12124,6.3794 -18.54708,9.75859 9.04981,4.48326 17.7078,8.47164 25.19781,14.27196 10.48492,-7.90694 9.69859,-10.32993 9.58579,-24.03055 z m -104.6543,48.74191 c -26.23826,14.29432 -24.30046,24.37108 -24.30154,25.34318 0.10179,9.96718 0.009,19.9034 0.0936,30.12967 0.52588,6.58264 6.62641,13.29867 12.98655,18.37365 8.67413,6.9214 25.35523,14.9967 52.67771,26.19052 l 61.5114,0 c -13.39563,-9.02143 -53.79,-25.47802 -60.40606,-28.27964 -18.53355,-7.84818 -42.33558,-16.22766 -59.52559,-31.32955 8.10925,-7.8411 20.94827,-14.27868 30.50853,-18.71833 37.74048,-17.50368 52.455,-21.21978 65.19275,-27.46013 -10.13898,-4.76413 -21.63371,-9.54142 -33.13696,-14.31122 -20.96055,8.39705 -32.97965,13.18623 -45.60036,20.06185 z"
       id="path5150"
       sodipodi:nodetypes="cccccsccsccsccccs" />
    <path
       sodipodi:nodetypes="cccccsccsccsccccs"
       id="path5152"
       d="m 302.16588,-166.64259 c 6.01312,-4.22053 11.12124,-6.3794 18.54708,-9.75859 -9.04981,-4.48326 -17.7078,-8.47164 -25.19781,-14.27196 -10.48492,7.90694 -9.69859,10.32993 -9.58579,24.03055 z m 104.6543,-48.74191 c 26.23826,-14.29432 24.30046,-24.37108 24.30154,-25.34318 -0.10179,-9.96718 -0.009,-19.9034 -0.0936,-30.12967 -0.52588,-6.58264 -6.62641,-13.29867 -12.98654,-18.37365 -8.67413,-6.9214 -25.35523,-14.9967 -52.67772,-26.19052 l -61.5114,0 c 13.39563,9.02143 53.79,25.47802 60.40606,28.27964 18.53356,7.84818 42.33558,16.22766 59.52559,31.32955 -8.10925,7.8411 -20.94826,14.27868 -30.50852,18.71833 -37.74049,17.50368 -52.45501,21.21978 -65.19276,27.46013 10.13898,4.76413 21.63371,9.54142 33.13696,14.31122 20.96055,-8.39705 32.97966,-13.18623 45.60036,-20.06185 z"
       style="fill:#a2c2ea;fill-opacity:1;fill-rule:nonzero;stroke:#000000;stroke-width:0;stroke-linejoin:round;stroke-miterlimit:4;stroke-dashoffset:0;marker-start:none;marker-mid:none;marker-end:none"
       inkscape:connector-curvature="0" />
  </g>
  <g
     inkscape:groupmode="layer"
     id="layer2"
     inkscape:label="shading"
     style="opacity:0.5;display:inline;filter:url(#filter6362)"
     transform="translate(-15.819668,667.69002)">
    <path
       style="opacity:0.65652173;fill:url(#linearGradient6147);fill-opacity:1;fill-rule:nonzero;stroke:#000000;stroke-width:0;stroke-linejoin:round;stroke-miterlimit:4;stroke-dashoffset:0;marker-start:none;marker-mid:none;marker-end:none"
       d="m 430.67014,-297.73611 c -6.01312,4.22053 -11.10541,6.37081 -18.53125,9.75 9.04981,4.48326 17.69749,8.48093 25.1875,14.28125 10.48492,-7.90694 9.70655,-10.33063 9.59375,-24.03125 l -16.25,0 z m -59.03125,28.6875 c -20.96055,8.39705 -33.0043,13.18688 -45.625,20.0625 -21.15074,11.52269 -23.9738,20.29961 -24.28125,23.78125 -0.002,0.0276 0.002,0.0668 0,0.0937 0.0116,6.81645 1.55368,10.61016 7.34375,16.53125 0.005,0.005 0.0258,-0.005 0.0313,0 8.11096,-7.82739 20.9208,-14.25357 30.46875,-18.6875 37.74048,-17.50368 52.44975,-21.2284 65.1875,-27.46875 -10.13898,-4.76413 -21.62175,-9.5427 -33.125,-14.3125 z"
       id="path5170"
       inkscape:connector-curvature="0" />
    <path
       style="opacity:0.54782613;fill:url(#linearGradient6308);fill-opacity:1;fill-rule:nonzero;stroke:#000000;stroke-width:0;stroke-linejoin:round;stroke-miterlimit:4;stroke-dashoffset:0;marker-start:none;marker-mid:none;marker-end:none"
       d="m 301.73264,-225.11111 c -0.0624,0.79023 2e-4,1.28648 0,1.46875 0.10179,9.96718 0.01,19.89873 0.0937,30.125 0.52588,6.58264 6.60861,13.30002 12.96875,18.375 8.67413,6.9214 25.36501,14.99368 52.6875,26.18746 l 61.5,0 c -13.39563,-9.02139 -53.79019,-25.47959 -60.40625,-28.28121 -18.53356,-7.84818 -42.30999,-16.21061 -59.5,-31.3125 0.005,-0.005 -0.005,-0.026 0,-0.0313 -5.79007,-5.92109 -7.3321,-9.7148 -7.34375,-16.53125 z"
       id="path5234"
       inkscape:connector-curvature="0" />
    <path
       inkscape:connector-curvature="0"
       id="path5262"
       d="m 318.0116,-148.9549 c 6.01312,-4.22053 11.10541,-6.37081 18.53125,-9.75 -9.04981,-4.48326 -17.69749,-8.48093 -25.1875,-14.28125 -10.48492,7.90694 -9.70655,10.33063 -9.59375,24.03125 l 16.25,0 z m 59.03125,-28.6875 c 20.96055,-8.39705 33.0043,-13.18688 45.625,-20.0625 21.15074,-11.52269 23.9738,-20.29961 24.28125,-23.78125 0.002,-0.0276 -0.002,-0.0668 0,-0.0937 -0.0117,-6.81645 -1.55368,-10.61016 -7.34375,-16.53125 -0.005,-0.005 -0.0258,0.005 -0.0313,0 -8.11096,7.82739 -20.9208,14.25357 -30.46875,18.6875 -37.74048,17.50368 -52.44975,21.2284 -65.1875,27.46875 10.13898,4.76413 21.62175,9.5427 33.125,14.3125 z"
       style="opacity:0.5043478;fill:url(#linearGradient6149);fill-opacity:1;fill-rule:nonzero;stroke:#000000;stroke-width:0;stroke-linejoin:round;stroke-miterlimit:4;stroke-dashoffset:0;marker-start:none;marker-mid:none;marker-end:none" />
    <path
       inkscape:connector-curvature="0"
       id="path5264"
       d="m 446.9491,-221.5799 c 0.0624,-0.79023 -2e-4,-1.28648 0,-1.46875 -0.10179,-9.96718 -0.01,-19.89873 -0.0937,-30.125 -0.52588,-6.58264 -6.60861,-13.30002 -12.96875,-18.375 -8.67413,-6.9214 -25.36501,-14.99368 -52.6875,-26.18746 l -61.5,0 c 13.39563,9.02139 53.79019,25.47959 60.40625,28.28121 18.53356,7.84818 42.30998,16.21061 59.5,31.3125 -0.005,0.005 0.005,0.026 0,0.0313 5.79007,5.92109 7.3321,9.7148 7.34375,16.53125 z"
       style="opacity:0.92173911;fill:url(#linearGradient6306);fill-opacity:1;fill-rule:nonzero;stroke:#000000;stroke-width:0;stroke-linejoin:round;stroke-miterlimit:4;stroke-dashoffset:0;marker-start:none;marker-mid:none;marker-end:none" />
  </g>
</svg>
